<svg viewBox="0 0 1024 1024" xmlns="http://www.w3.org/2000/svg">
  <path d="M832 64H192C139.2 64 96 107.2 96 160v704c0 52.8 43.2 96 96 96h640c52.8 0 96-43.2 96-96V160c0-52.8-43.2-96-96-96zm32 800c0 17.6-14.4 32-32 32H192c-17.6 0-32-14.4-32-32V160c0-17.6 14.4-32 32-32h640c17.6 0 32 14.4 32 32v704zM256 384h512c17.6 0 32-14.4 32-32s-14.4-32-32-32H256c-17.6 0-32 14.4-32 32s14.4 32 32 32zm0 128h512c17.6 0 32-14.4 32-32s-14.4-32-32-32H256c-17.6 0-32 14.4-32 32s14.4 32 32 32zm0 128h512c17.6 0 32-14.4 32-32s-14.4-32-32-32H256c-17.6 0-32 14.4-32 32s14.4 32 32 32zm0 128h512c17.6 0 32-14.4 32-32s-14.4-32-32-32H256c-17.6 0-32 14.4-32 32s14.4 32 32 32z" />
</svg> 