<svg viewBox="0 0 1024 1024" xmlns="http://www.w3.org/2000/svg">
  <path d="M512 0l384 298.667v234.666h-85.333v-192L512 128 213.333 341.333v511.334h384v85.333h-384c-46.934 0-85.333-38.4-85.333-85.333V341.333L512 0zm128 725.333h213.333c23.467 0 42.667 19.2 42.667 42.667v213.333c0 23.467-19.2 42.667-42.667 42.667H640c-23.467 0-42.667-19.2-42.667-42.667V768c0-23.467 19.2-42.667 42.667-42.667zm20 65v149.334h173.333V790.333H660zm-89.333-448C642.133 342.333 704 404.2 704 480c0 75.733-61.867 137.667-138.667 137.667-75.733 0-137.666-61.934-137.666-137.667 0-75.8 61.933-137.667 137.666-137.667zm0 64c-41.067 0-73.334 32.267-73.334 73.667 0 41.6 32.267 73.667 73.334 73.667 40.933 0 73.333-32.067 73.333-73.667 0-41.4-32.4-73.667-73.333-73.667z" />
</svg> 